<svg width="172" height="44" fill="none" xmlns="http://www.w3.org/2000/svg"><path d="M2.477 11h4.5l12.375 13.219L31.727 11h4.5L21.039 26.75V38h-3.375V26.75L2.477 11zm69.046 0v2.813h-13.5V38h-3.375V13.812h-13.5V11h30.375zm7.954 0h2l5.5 5.875 5.5-5.875h2l-6.75 7v5h-1.5v-5l-6.75-7zm17.687 0h1.5v12h-1.5V11zm4.5 12V11h1.5v10.75h9.5V23h-11zm14.5-11v11h-1.5V11h2.5l6.992 10.5 6.992-10.5h2.391v12h-1.5V12.164L124.914 23h-1.516l-7.234-11zm32.125 8.25h-9.5l-1.5 2.75h-1.75l7-12h2l7 12h-1.75l-1.5-2.75zm-.75-1.25l-4-7-4 7h8zm5.5 4v-1.25l11.609-9.5h-11.109V11h13.25v1.25l-11.672 9.5h11.922V23h-14zm-55.36 4v1.25h-6V39h-1.5V28.25h-6V27h13.5zm2.501 12V27h12v1.25h-10.5v4h10v1.25h-10v4.25h10.5V39h-12zm25.25-12h2.25l-8.5 5.875L127.93 39h-2.25l-8-5.5h-2V39h-1.5V27h1.5v5.25h2l7.75-5.25zm6 12h-1.5V27h2.632l11 10.5V27h1.5v12h-2L131.43 28.25V39zm16.64-12h1.5v12h-1.5V27zm15.75 0h2.25l-8.5 5.875L166.32 39h-2.25l-8-5.5h-2V39h-1.5V27h1.5v5.25h2l7.75-5.25z" fill="#486A6F"/></svg>