<svg width="19" height="20" fill="none" xmlns="http://www.w3.org/2000/svg"><path d="M11.53 4.44a4.006 4.006 0 012.098 1.18 4.382 4.382 0 011.117 2.218L11.53 4.44zm0-3.44c1.651.194 3.191.975 4.367 2.216A7.925 7.925 0 0118 7.83L11.53 1zm5.656 13.693v2.58c.001.24-.045.477-.136.696-.091.22-.224.416-.391.578a1.611 1.611 0 01-.58.362 1.544 1.544 0 01-.667.084 15.56 15.56 0 01-7.024-2.64 16.352 16.352 0 01-4.883-5.161 17.654 17.654 0 01-2.498-7.457c-.02-.238.006-.477.078-.704.072-.226.188-.434.34-.61.153-.177.338-.318.545-.414.207-.097.43-.147.656-.147h2.442c.395-.004.778.144 1.077.416.3.272.495.65.55 1.063.104.826.295 1.637.57 2.417.11.308.133.643.068.964a1.752 1.752 0 01-.434.851L5.865 8.663c1.159 2.154 2.846 3.937 4.883 5.16l1.034-1.091c.221-.232.5-.391.805-.46.305-.068.621-.043.912.072a9.99 9.99 0 002.287.603c.396.059.757.269 1.015.59.258.323.395.734.385 1.156z" stroke="#486A6F" stroke-width="2" stroke-linecap="round" stroke-linejoin="round"/></svg>